<svg width="25" height="21" viewBox="0 0 25 21" fill="none" xmlns="http://www.w3.org/2000/svg">
<g clip-path="url(#clip0)">
<path d="M6.0341 9.92373L17.5973 0.237475C17.9762 -0.0796975 18.5896 -0.0791643 18.9678 0.239116C19.3457 0.557355 19.3447 1.07288 18.9658 1.3903L8.09088 10.5L18.9662 19.6097C19.3451 19.9272 19.3461 20.4424 18.9682 20.7607C18.7786 20.9202 18.5302 21 18.2818 21C18.034 21 17.7866 20.9208 17.5974 20.7623L6.0341 11.0763C5.85163 10.9238 5.74924 10.7163 5.74924 10.5C5.74924 10.2838 5.85192 10.0765 6.0341 9.92373Z" fill="black"/>
</g>
<defs>
<clipPath id="clip0">
<rect width="25" height="21" fill="white" transform="matrix(-1 0 0 1 25 0)"/>
</clipPath>
</defs>
</svg>
