<svg width="220" height="121" viewBox="0 0 220 121" fill="none" xmlns="http://www.w3.org/2000/svg">
<path d="M39.7607 17.1706C39.185 17.1706 38.6222 17 38.1436 16.6802C37.6649 16.3605 37.2918 15.9061 37.0715 15.3743C36.8512 14.8426 36.7936 14.2576 36.9059 13.6931C37.0182 13.1287 37.2954 12.6102 37.7025 12.2033C38.1096 11.7963 38.6282 11.5192 39.1928 11.4069C39.7574 11.2946 40.3427 11.3522 40.8745 11.5725C41.4064 11.7927 41.861 12.1657 42.1808 12.6442C42.5007 13.1227 42.6714 13.6853 42.6714 14.2608C42.6705 15.0323 42.3635 15.7719 41.8179 16.3174C41.2722 16.8629 40.5324 17.1697 39.7607 17.1706ZM39.7607 11.836C39.2809 11.836 38.812 11.9782 38.4131 12.2446C38.0142 12.5111 37.7033 12.8898 37.5197 13.3329C37.3361 13.7759 37.2881 14.2635 37.3817 14.7339C37.4753 15.2042 37.7063 15.6363 38.0455 15.9754C38.3848 16.3146 38.817 16.5455 39.2875 16.6391C39.758 16.7326 40.2457 16.6846 40.6889 16.5011C41.1321 16.3175 41.5109 16.0067 41.7775 15.608C42.044 15.2092 42.1863 14.7404 42.1863 14.2608C42.1855 13.6179 41.9298 13.0016 41.475 12.547C41.0203 12.0924 40.4038 11.8367 39.7607 11.836Z" fill="#3F3D56"/>
<path d="M169.245 92.6537H164.456V87.8668H169.245V92.6537ZM164.825 92.2855H168.876V88.235H164.825L164.825 92.2855Z" fill="#3F3D56"/>
<path d="M55.1562 88.3084L51.8901 84.8078L55.3917 81.5428L58.6578 85.0433L55.1562 88.3084ZM52.4107 84.826L55.1743 87.788L58.1372 85.0252L55.3736 82.0632L52.4107 84.826Z" fill="#3F3D56"/>
<path d="M164.554 120.879C159.309 120.058 154.266 119.36 149.425 118.784L151.289 115.057C150.642 114.841 147.838 116.998 147.838 116.998L150.211 106.217C146.975 106.648 145.465 117.644 145.465 117.644L141.799 113.979L143.604 118.129C128.79 116.573 116.007 116.087 105.262 116.199L106.858 113.009C106.211 112.793 103.407 114.949 103.407 114.949L105.779 104.168C102.544 104.599 101.034 115.596 101.034 115.596L97.3675 111.931L99.2793 116.326C91.9188 116.54 84.5742 117.131 77.2745 118.098C78.8665 113.139 84.4264 108.373 84.4264 108.373C80.1514 109.702 77.9273 111.868 76.7762 113.876C76.5433 103.69 78.1109 93.5418 81.4068 83.8998C81.4068 83.8998 72.7794 103.306 74.0735 116.243L74.2377 118.541C66.732 119.712 62.9657 120.879 62.9657 120.879H164.554Z" fill="#3F3D56"/>
<path opacity="0.3" d="M111.364 94.8154C129.985 94.8154 145.08 79.7249 145.08 61.11C145.08 42.495 129.985 27.4046 111.364 27.4046C92.7438 27.4046 77.6488 42.495 77.6488 61.11C77.6488 79.7249 92.7438 94.8154 111.364 94.8154Z" fill="#6C63FF"/>
<path d="M97.5184 18.2301L75.0697 45.4594L108.294 84.658L130.443 58.6256L97.5184 18.2301Z" fill="#6C63FF"/>
<path opacity="0.1" d="M97.5184 18.2301L75.0697 45.4594L108.294 84.658L130.443 58.6256L97.5184 18.2301Z" fill="black"/>
<path d="M75.9677 45.7588C76.4642 44.8653 77.08 44.0433 77.798 43.3156L98.4163 22.4192C98.4163 22.4192 105.6 21.2223 107.096 24.813L80.7567 46.3572L75.9677 45.7588Z" fill="#F2F2F2"/>
<path d="M74.9201 45.3099L105.45 91.9891C105.45 91.9891 108.443 94.0837 111.437 92.8868L142.715 71.7914L109.491 21.5215L79.5595 44.8611L74.9201 45.3099Z" fill="#6C63FF"/>
<path d="M105.758 28.8063L86.6007 42.5685L86.8838 42.9623L106.042 29.2001L105.758 28.8063Z" fill="#3F3D56"/>
<path d="M86.3467 47.7195L85.9421 47.9871L111.085 85.9888L111.489 85.7212L86.3467 47.7195Z" fill="#3F3D56"/>
<path d="M134.487 71.8923L114.139 86.8595L114.426 87.2502L134.775 72.283L134.487 71.8923Z" fill="#3F3D56"/>
<path d="M109.391 29.4622L108.993 29.7391L135.033 67.1422L135.431 66.8652L109.391 29.4622Z" fill="#3F3D56"/>
<path d="M101.347 22.1226L77.6624 43.8533L77.8647 44.0736L101.549 22.3429L101.347 22.1226Z" fill="#3F3D56"/>
<path d="M103.32 22.3089L78.5666 44.1551L78.7647 44.3795L103.518 22.5333L103.32 22.3089Z" fill="#3F3D56"/>
<path d="M104.869 22.7443L79.1721 44.157L79.3638 44.387L105.06 22.9742L104.869 22.7443Z" fill="#3F3D56"/>
</svg>
