<svg width="266" height="192" viewBox="0 0 266 192" fill="none" xmlns="http://www.w3.org/2000/svg">
<path d="M11.5278 96.8057C14.4088 90.9984 16.0383 85.9402 15.1673 85.508C14.2963 85.0758 11.2548 89.4332 8.37376 95.2405C5.49275 101.048 3.86331 106.106 4.73428 106.538C5.60525 106.97 8.64683 102.613 11.5278 96.8057Z" fill="#E0E0E0"/>
<path d="M157.674 169.399C160.555 163.591 162.411 158.645 161.819 158.352C161.228 158.058 158.412 162.528 155.531 168.335C152.65 174.142 150.795 179.088 151.386 179.382C151.978 179.676 154.793 175.206 157.674 169.399Z" fill="#E0E0E0"/>
<path d="M79.1393 140.041L73.7093 135.556L58.7636 153.659L64.1936 158.143L79.1393 140.041Z" fill="#F55F44"/>
<path opacity="0.05" d="M66.6524 159.588L74.3654 161.401L79.7379 138.548L72.0249 136.734L66.6524 159.588Z" fill="black"/>
<path d="M67.5104 159.789L74.3654 161.401L79.7379 138.548L72.8829 136.936L67.5104 159.789Z" fill="#F55F44"/>
<path d="M15.4281 84.9823L4.47345 107.064L151.138 179.845L162.092 157.763L15.4281 84.9823Z" fill="url(#paint0_linear)"/>
<path d="M151.399 179.319C148.528 177.942 2.63156 105.495 4.73428 106.538C12.832 94.1769 15.1673 85.508 15.1673 85.508L161.832 158.289C161.832 158.289 156.681 167.329 151.399 179.319Z" fill="#F5F5F5"/>
<path opacity="0.05" d="M91.3907 123.333L79.3001 117.333L68.8671 138.363L80.9577 144.363L91.3907 123.333Z" fill="black"/>
<path d="M90.865 123.072L79.8258 117.594L69.3928 138.624L80.432 144.102L90.865 123.072Z" fill="#F55F44"/>
<path opacity="0.05" d="M88.7623 122.029L81.4028 118.377L70.9698 139.407L78.3293 143.059L88.7623 122.029Z" fill="black"/>
<path d="M88.2367 121.768L81.9285 118.638L71.4955 139.668L77.8036 142.798L88.2367 121.768Z" fill="#F55F44"/>
<path d="M87.3872 189.596C87.9276 189.596 88.3656 189.158 88.3656 188.617C88.3656 188.077 87.9276 187.639 87.3872 187.639C86.8468 187.639 86.4088 188.077 86.4088 188.617C86.4088 189.158 86.8468 189.596 87.3872 189.596Z" fill="#DBDBDB"/>
<g opacity="0.5">
<path opacity="0.5" d="M10.8335 161.216H9.8302V166.902H10.8335V161.216Z" fill="#47E6B1"/>
<path opacity="0.5" d="M13.1744 164.561V163.557H7.48921V164.561H13.1744Z" fill="#47E6B1"/>
</g>
<g opacity="0.5">
<path opacity="0.5" d="M263.659 90.3076H262.656V95.9937H263.659V90.3076Z" fill="#47E6B1"/>
<path opacity="0.5" d="M266 93.6523V92.6489H260.315V93.6523H266Z" fill="#47E6B1"/>
</g>
<g opacity="0.5">
<path opacity="0.5" d="M16.8531 19.7339H15.8499V25.4199H16.8531V19.7339Z" fill="#47E6B1"/>
<path opacity="0.5" d="M19.1941 23.0786V22.0752H13.5089V23.0786H19.1941Z" fill="#47E6B1"/>
</g>
<g opacity="0.5">
<path opacity="0.5" d="M233.561 11.0376H232.557V16.7236H233.561V11.0376Z" fill="#47E6B1"/>
<path opacity="0.5" d="M235.902 14.3823V13.3789H230.216V14.3823H235.902Z" fill="#47E6B1"/>
</g>
<path opacity="0.5" d="M4.10998 84.7742C3.8335 84.6538 3.61094 84.4359 3.48468 84.162C3.35842 83.8881 3.33727 83.5773 3.42525 83.2888C3.43949 83.2446 3.44845 83.1988 3.45197 83.1525C3.46001 83.0203 3.42528 82.8891 3.35291 82.7782C3.28054 82.6673 3.17439 82.5827 3.05017 82.5369C2.92595 82.491 2.79028 82.4864 2.66324 82.5237C2.53621 82.5611 2.42458 82.6383 2.34487 82.744C2.31746 82.7816 2.29458 82.8222 2.27668 82.8651C2.15627 83.1416 1.9384 83.3642 1.66454 83.4904C1.39067 83.6167 1.07995 83.6379 0.791502 83.5499C0.747281 83.5356 0.701531 83.5267 0.655208 83.5232C0.523054 83.5151 0.391823 83.5499 0.280954 83.6222C0.170085 83.6946 0.0854743 83.8008 0.0396522 83.925C-0.00616987 84.0493 -0.0107641 84.1849 0.0265479 84.312C0.0638599 84.439 0.141092 84.5507 0.246811 84.6304C0.28432 84.6578 0.324933 84.6807 0.367806 84.6986C0.644287 84.819 0.866842 85.0369 0.993103 85.3108C1.11936 85.5847 1.14052 85.8955 1.05254 86.184C1.0383 86.2282 1.02933 86.274 1.02581 86.3203C1.01777 86.4525 1.05251 86.5837 1.12488 86.6946C1.19725 86.8055 1.3034 86.8901 1.42762 86.936C1.55183 86.9818 1.68751 86.9864 1.81454 86.9491C1.94157 86.9117 2.05321 86.8345 2.13291 86.7288C2.16032 86.6912 2.18321 86.6506 2.2011 86.6077C2.32152 86.3312 2.53939 86.1086 2.81325 85.9824C3.08711 85.8561 3.39784 85.8349 3.68628 85.9229C3.73051 85.9372 3.77625 85.9461 3.82258 85.9496C3.95473 85.9577 4.08597 85.9229 4.19684 85.8506C4.30771 85.7782 4.39232 85.672 4.43814 85.5478C4.48397 85.4236 4.48856 85.2879 4.45125 85.1608C4.41393 85.0338 4.3367 84.9221 4.23098 84.8424C4.19346 84.815 4.15285 84.7921 4.10998 84.7742Z" fill="#4D8AF0"/>
<path opacity="0.5" d="M61.6311 18.8831C61.3547 18.7627 61.1321 18.5447 61.0058 18.2708C60.8796 17.9969 60.8584 17.6862 60.9464 17.3977C60.9606 17.3535 60.9696 17.3077 60.9731 17.2614C60.9812 17.1292 60.9464 16.998 60.8741 16.8871C60.8017 16.7762 60.6955 16.6916 60.5713 16.6457C60.4471 16.5999 60.3114 16.5953 60.1844 16.6326C60.0574 16.6699 59.9457 16.7472 59.866 16.8529C59.8386 16.8904 59.8157 16.9311 59.7978 16.9739C59.6774 17.2505 59.4595 17.473 59.1857 17.5993C58.9118 17.7256 58.6011 17.7468 58.3127 17.6588C58.2684 17.6445 58.2227 17.6355 58.1764 17.632C58.0442 17.624 57.913 17.6587 57.8021 17.7311C57.6912 17.8035 57.6066 17.9097 57.5608 18.0339C57.515 18.1581 57.5104 18.2938 57.5477 18.4209C57.585 18.5479 57.6623 18.6596 57.768 18.7393C57.8055 18.7667 57.8461 18.7896 57.889 18.8075C58.1654 18.9279 58.388 19.1458 58.5143 19.4197C58.6405 19.6936 58.6617 20.0044 58.5737 20.2929C58.5595 20.3371 58.5505 20.3829 58.547 20.4292C58.5389 20.5614 58.5737 20.6926 58.646 20.8035C58.7184 20.9144 58.8246 20.999 58.9488 21.0448C59.073 21.0907 59.2087 21.0953 59.3357 21.0579C59.4627 21.0206 59.5744 20.9434 59.6541 20.8376C59.6815 20.8001 59.7044 20.7595 59.7223 20.7166C59.8427 20.4401 60.0605 20.2175 60.3344 20.0912C60.6083 19.965 60.919 19.9438 61.2074 20.0318C61.2517 20.046 61.2974 20.055 61.3437 20.0585C61.4759 20.0666 61.6071 20.0318 61.718 19.9595C61.8289 19.8871 61.9135 19.7809 61.9593 19.6567C62.0051 19.5324 62.0097 19.3967 61.9724 19.2697C61.9351 19.1426 61.8579 19.031 61.7521 18.9513C61.7146 18.9239 61.674 18.901 61.6311 18.8831Z" fill="#4D8AF0"/>
<path opacity="0.5" d="M131.86 189.799C131.584 189.678 131.361 189.46 131.235 189.186C131.109 188.912 131.088 188.602 131.176 188.313C131.19 188.269 131.199 188.223 131.202 188.177C131.21 188.045 131.176 187.913 131.103 187.803C131.031 187.692 130.925 187.607 130.801 187.561C130.676 187.515 130.541 187.511 130.414 187.548C130.287 187.585 130.175 187.663 130.095 187.768C130.068 187.806 130.045 187.847 130.027 187.889C129.907 188.166 129.689 188.389 129.415 188.515C129.141 188.641 128.83 188.662 128.542 188.574C128.498 188.56 128.452 188.551 128.406 188.548C128.274 188.539 128.142 188.574 128.031 188.647C127.921 188.719 127.836 188.825 127.79 188.949C127.744 189.074 127.74 189.209 127.777 189.336C127.814 189.463 127.892 189.575 127.997 189.655C128.035 189.682 128.075 189.705 128.118 189.723C128.395 189.843 128.617 190.061 128.744 190.335C128.87 190.609 128.891 190.92 128.803 191.208C128.789 191.253 128.78 191.298 128.776 191.345C128.768 191.477 128.803 191.608 128.875 191.719C128.948 191.83 129.054 191.915 129.178 191.96C129.302 192.006 129.438 192.011 129.565 191.973C129.692 191.936 129.804 191.859 129.883 191.753C129.911 191.716 129.934 191.675 129.952 191.632C130.072 191.356 130.29 191.133 130.564 191.007C130.838 190.88 131.148 190.859 131.437 190.947C131.481 190.962 131.527 190.971 131.573 190.974C131.705 190.982 131.836 190.947 131.947 190.875C132.058 190.803 132.143 190.696 132.189 190.572C132.234 190.448 132.239 190.312 132.202 190.185C132.164 190.058 132.087 189.947 131.981 189.867C131.944 189.839 131.903 189.816 131.86 189.799Z" fill="#4D8AF0"/>
<path opacity="0.5" d="M253.961 150.513C255.069 150.513 255.967 149.614 255.967 148.506C255.967 147.398 255.069 146.499 253.961 146.499C252.852 146.499 251.954 147.398 251.954 148.506C251.954 149.614 252.852 150.513 253.961 150.513Z" fill="#F55F44"/>
<path opacity="0.5" d="M209.817 163.223C210.925 163.223 211.823 162.324 211.823 161.216C211.823 160.107 210.925 159.209 209.817 159.209C208.708 159.209 207.81 160.107 207.81 161.216C207.81 162.324 208.708 163.223 209.817 163.223Z" fill="#4D8AF0"/>
<path opacity="0.5" d="M34.5777 182.957C35.6859 182.957 36.5842 182.058 36.5842 180.95C36.5842 179.841 35.6859 178.943 34.5777 178.943C33.4695 178.943 32.5711 179.841 32.5711 180.95C32.5711 182.058 33.4695 182.957 34.5777 182.957Z" fill="#47E6B1"/>
<path opacity="0.5" d="M137.581 4.01367C138.689 4.01367 139.587 3.11518 139.587 2.00684C139.587 0.898491 138.689 0 137.581 0C136.472 0 135.574 0.898491 135.574 2.00684C135.574 3.11518 136.472 4.01367 137.581 4.01367Z" fill="#F55F44"/>
<path d="M68.5219 119.574L60.4956 131.615C60.4956 131.615 63.171 143.99 122.364 143.656C181.558 143.322 186.24 131.615 186.24 131.615L175.204 115.56L141.427 92.4817L68.5219 119.574Z" fill="#6C63FF"/>
<path opacity="0.15" d="M68.5219 119.574L60.4956 131.615C60.4956 131.615 63.171 143.99 122.364 143.656C181.558 143.322 186.24 131.615 186.24 131.615L175.204 115.56L141.427 92.4817L68.5219 119.574Z" fill="black"/>
<path d="M239.246 74.9219L133.902 121.414L5.48257 74.9219L123.2 21.4062L180.986 48.0537L183.056 49.0103L239.246 74.9219Z" fill="#6C63FF"/>
<path opacity="0.15" d="M239.246 74.9219L133.902 121.414L5.48257 74.9219L123.2 21.4062L180.986 48.0537L183.056 49.0103L239.246 74.9219Z" fill="black"/>
<path d="M185.236 86.0665L183.23 86.1869L180.986 48.0537L183.056 49.0103L185.236 86.0665Z" fill="#F5F5F5"/>
<path d="M69.8596 74.7546L60.4956 131.615C60.4956 131.615 127.715 109.874 186.24 131.615L177.544 71.4099C177.544 71.4099 98.9546 61.7102 69.8596 74.7546Z" fill="#6C63FF"/>
<path d="M185.069 97.666C190.425 97.666 194.767 94.671 194.767 90.9766C194.767 87.2821 190.425 84.2871 185.069 84.2871C179.713 84.2871 175.371 87.2821 175.371 90.9766C175.371 94.671 179.713 97.666 185.069 97.666Z" fill="#F5F5F5"/>
<defs>
<linearGradient id="paint0_linear" x1="77.8056" y1="143.454" x2="88.7628" y2="121.374" gradientUnits="userSpaceOnUse">
<stop stop-color="#808080" stop-opacity="0.25"/>
<stop offset="0.53514" stop-color="#808080" stop-opacity="0.12"/>
<stop offset="1" stop-color="#808080" stop-opacity="0.1"/>
</linearGradient>
</defs>
</svg>
