<svg width="36" height="34" viewBox="0 0 36 34" fill="none" xmlns="http://www.w3.org/2000/svg">
<path d="M17.5312 34C27.2135 34 35.0625 26.3888 35.0625 17C35.0625 7.61116 27.2135 0 17.5312 0C7.84901 0 0 7.61116 0 17C0 26.3888 7.84901 34 17.5312 34Z" fill="#FFC107"/>
<path d="M24.9487 18.9615H17.5316C16.415 18.9615 15.5088 18.0828 15.5088 17V9.8077C15.5088 8.72493 16.415 7.84616 17.5316 7.84616C18.6482 7.84616 19.5545 8.72493 19.5545 9.8077V15.0385H24.9487C26.0653 15.0385 26.9715 15.9172 26.9715 17C26.9715 18.0828 26.0653 18.9615 24.9487 18.9615Z" fill="#FAFAFA"/>
</svg>
