<svg width="118" height="120" viewBox="0 0 118 120" fill="none" xmlns="http://www.w3.org/2000/svg">
<g clip-path="url(#clip0)">
<path d="M7.42542 95.3468V95.8104C7.42608 96.5787 7.73061 97.3154 8.27216 97.8586C8.81371 98.4019 9.54802 98.7074 10.3139 98.708H34.8081C35.5741 98.7077 36.3086 98.4024 36.8503 97.859C37.3919 97.3157 37.6963 96.5788 37.6966 95.8104V95.3468C37.698 94.6687 37.4607 94.012 37.0264 93.4923C36.8818 93.3198 36.7183 93.1643 36.5388 93.0287H23.8342C23.681 93.0287 23.5341 92.9676 23.4257 92.8589C23.3174 92.7503 23.2565 92.6029 23.2565 92.4492H10.3139C9.54815 92.4503 8.81406 92.7559 8.2726 93.2991C7.73113 93.8422 7.42647 94.5786 7.42542 95.3468Z" fill="#3F3D56"/>
<path d="M20.9445 119.919H23.9485L23.9485 98.5929H20.9445L20.9445 119.919Z" fill="#3F3D56"/>
<path d="M12.3947 119.813C12.3947 120.139 16.9468 119.939 22.5621 119.939C28.1774 119.939 32.7295 120.139 32.7295 119.813C32.7295 119.488 28.1774 116.906 22.5621 116.906C16.9468 116.906 12.3947 119.488 12.3947 119.813Z" fill="#3F3D56"/>
<path d="M12.1393 94.8577L22.3899 96.4989L34.2996 98.4067L38.429 99.0673C38.8255 99.1301 39.2305 99.0326 39.5554 98.7962C39.8803 98.5598 40.0984 98.2038 40.1621 97.8063L40.3493 96.6334L40.5226 95.5415L40.6658 94.6421C40.6982 94.441 40.6895 94.2354 40.6402 94.0377C40.591 93.8401 40.5022 93.6545 40.3793 93.4923C40.234 93.2929 40.0408 93.1334 39.8177 93.0287H23.8341C23.6809 93.0287 23.534 92.9676 23.4257 92.8589C23.3174 92.7502 23.2565 92.6029 23.2564 92.4492V91.9925C23.2565 91.8388 23.3174 91.6915 23.4257 91.5828C23.534 91.4741 23.6809 91.4131 23.8341 91.413H30.1148L27.2194 90.9494L18.3183 89.5238L13.1214 88.6916C12.724 88.6284 12.3179 88.726 11.9921 88.9628C11.6663 89.1996 11.4475 89.5565 11.3837 89.9549L10.8799 93.1168C10.8184 93.515 10.9163 93.9214 11.1522 94.2475C11.3881 94.5736 11.7429 94.7929 12.1393 94.8577Z" fill="#4C76E1"/>
<path d="M34.2997 94.4173V112.083C34.3003 112.486 34.4599 112.872 34.7436 113.156C35.0273 113.441 35.412 113.601 35.8132 113.602H39.009C39.4103 113.601 39.7949 113.441 40.0787 113.156C40.3624 112.872 40.5221 112.486 40.5226 112.083V94.4173C40.5232 94.0821 40.4117 93.7565 40.206 93.4923C40.0537 93.2894 39.8515 93.1296 39.6191 93.0287H35.2009C34.9695 93.1303 34.7682 93.29 34.6163 93.4923C34.4109 93.7566 34.2995 94.0822 34.2997 94.4173Z" fill="#4C76E1"/>
<path d="M24.6683 64.5162C24.6846 64.6738 24.7251 64.8278 24.7885 64.9729C24.8847 65.1944 25.033 65.3893 25.2206 65.5408L25.2276 65.5455L34.3459 72.9657L34.4799 73.0723L36.3679 74.6092L36.9386 75.0728H46.8125L46.2441 74.6092L38.4406 68.2576L33.2113 64.0016L29.1421 60.6914C28.9039 60.4967 28.6119 60.3802 28.3055 60.3576C28.3043 60.3563 28.3027 60.3554 28.3009 60.3553C28.2101 60.3487 28.1188 60.3502 28.0282 60.3599C27.8926 60.3736 27.7596 60.4064 27.6331 60.4573C27.5466 60.4887 27.4643 60.5307 27.3881 60.5824C27.2445 60.6703 27.117 60.7825 27.0115 60.9139L25.0288 63.3641L24.9988 63.4035C24.8731 63.5579 24.7792 63.7357 24.7225 63.9267C24.6657 64.1177 24.6473 64.3181 24.6683 64.5162Z" fill="#4C76E1"/>
<path d="M25.2276 65.5455C25.3994 65.9765 25.6493 66.3718 25.9647 66.7115L32.0351 73.2531C32.1818 73.3883 32.3537 73.4931 32.5409 73.5615C32.728 73.6299 32.9268 73.6605 33.1258 73.6517C33.3248 73.6429 33.5201 73.5947 33.7005 73.51C33.8809 73.4253 34.0429 73.3057 34.1771 73.1581L34.3459 72.9657L34.4198 72.8822L37.0426 69.9313L38.1702 68.661C38.2452 68.5827 38.3104 68.4955 38.3643 68.4013C38.392 68.355 38.4174 68.3063 38.4406 68.2576C38.5351 68.041 38.5786 67.8054 38.5676 67.5692C38.5599 67.3682 38.512 67.1708 38.4267 66.9888C38.3413 66.8068 38.2203 66.6439 38.0708 66.5098L31.0322 61.1133C30.2555 60.5159 29.2777 60.2449 28.3055 60.3576C28.3043 60.3563 28.3027 60.3555 28.3009 60.3553C28.085 60.3824 27.8716 60.4274 27.6631 60.4897C27.5706 60.5152 27.4806 60.5477 27.3881 60.5824C26.7914 60.8077 26.2623 61.1828 25.8514 61.6719C25.4045 62.1988 25.1101 62.8384 25.0001 63.5213C24.8901 64.2042 24.9688 64.9043 25.2276 65.5455V65.5455Z" fill="#2F2E41"/>
<path d="M22.3452 54.9702C28.7418 54.9702 33.9272 49.7683 33.9272 43.3514C33.9272 36.9346 28.7418 31.7327 22.3452 31.7327C15.9485 31.7327 10.7631 36.9346 10.7631 43.3514C10.7631 49.7683 15.9485 54.9702 22.3452 54.9702Z" fill="#4C76E1"/>
<path d="M19.261 93.2559L23.5567 93.9421L23.6539 93.9583L30.1841 95.0037L34.2996 95.6644L40.3492 96.6334L40.5225 96.6612L41.4213 96.8049L45.5507 97.4655C45.9472 97.5283 46.3522 97.4308 46.6771 97.1944C47.002 96.958 47.2202 96.602 47.2838 96.2045L47.6443 93.9421L47.7876 93.0426C47.7876 93.038 47.7899 93.0334 47.7899 93.0287H23.8341C23.6809 93.0287 23.534 92.9676 23.4256 92.8589C23.3173 92.7502 23.2564 92.6029 23.2564 92.4492V91.9925C23.2564 91.8389 23.3173 91.6915 23.4256 91.5828C23.534 91.4741 23.6809 91.4131 23.8341 91.413H31.4041V88.8793L30.942 88.8052L28.6589 88.4389L20.2409 87.0921C19.8441 87.0288 19.4385 87.1261 19.1131 87.3625C18.7877 87.5989 18.5692 87.9552 18.5054 88.3531L18.3182 89.5238L18.0016 91.5173C17.9396 91.9153 18.0373 92.3217 18.2734 92.6476C18.5094 92.9734 18.8646 93.1922 19.261 93.2559Z" fill="#4C76E1"/>
<path d="M6.58179 82.9914C6.58179 92.4631 7.54084 98.1285 22.3298 96.5059C22.3506 96.5036 22.3691 96.5012 22.3898 96.4989C25.0276 96.2375 27.6363 95.7371 30.1841 95.0037C31.5081 94.6159 32.795 94.1101 34.0292 93.4924C34.3203 93.344 34.5999 93.1887 34.875 93.0287H23.8341C23.6809 93.0287 23.534 92.9676 23.4256 92.8589C23.3173 92.7503 23.2564 92.6029 23.2564 92.4492V91.9925C23.2564 91.8389 23.3173 91.6915 23.4256 91.5828C23.534 91.4741 23.6809 91.4131 23.8341 91.413H31.4041V76.772C31.4048 76.3215 31.5834 75.8897 31.901 75.5712C32.2185 75.2527 32.6489 75.0735 33.0979 75.0728H39.2562C39.203 74.9198 39.15 74.7645 39.0922 74.6092C38.5144 73.0055 37.8297 71.4427 37.0425 69.9313C35.9641 67.8324 34.6807 65.8461 33.2112 64.0016C32.1879 62.7162 31.0392 61.5367 29.7821 60.4804C27.4643 58.5611 24.9409 57.3742 22.3806 57.3742C12.9388 57.3742 6.58179 73.5197 6.58179 82.9914Z" fill="#2F2E41"/>
<path d="M22.1019 47.6577L22.0898 47.2235C22.895 47.2011 23.6049 47.1504 24.1383 46.7594C24.2896 46.6423 24.4139 46.4939 24.5028 46.3242C24.5917 46.1546 24.6432 45.9677 24.6537 45.7764C24.6631 45.6594 24.6454 45.5419 24.6022 45.4329C24.5589 45.3239 24.4911 45.2264 24.4042 45.148C24.0501 44.848 23.4803 44.9451 23.0651 45.1361L22.7069 45.3008L23.3937 40.2663L23.8225 40.3253L23.2384 44.6078C23.8026 44.4414 24.3255 44.513 24.6836 44.8164C24.8211 44.9368 24.929 45.0875 24.9988 45.2567C25.0687 45.4259 25.0986 45.6089 25.0862 45.7916C25.0736 46.0488 25.005 46.3 24.8854 46.5278C24.7658 46.7555 24.5979 46.9543 24.3936 47.1101C23.7083 47.6126 22.8176 47.6376 22.1019 47.6577Z" fill="#2F2E41"/>
<path d="M28.2742 40.6946H25.9431V41.1288H28.2742V40.6946Z" fill="#2F2E41"/>
<path d="M20.9163 40.6946H18.5852V41.1288H20.9163V40.6946Z" fill="#2F2E41"/>
<path d="M13.1017 40.1591C14.0025 38.7989 15.5874 38.2223 17.1504 38.082C18.9096 37.9241 20.6095 38.2644 22.3271 38.5951C24.2174 38.959 26.218 39.2994 28.1228 38.8393C28.9654 38.6438 29.7527 38.2589 30.4255 37.7137C31.0982 37.1685 31.6388 36.4772 32.0065 35.6919C32.7039 34.1598 32.8542 32.4336 32.432 30.8034C31.9857 29.0696 30.8778 27.544 29.5347 26.3918C26.7935 24.04 23.084 22.9831 19.516 23.0826C15.9616 23.1747 12.5261 24.3864 9.69649 26.5463C6.86212 28.7841 4.86759 31.9196 4.03847 35.441C3.17147 38.9335 3.4539 42.6137 4.84359 45.9319C5.62436 47.7489 6.75356 49.3869 7.62489 51.1581C8.43616 52.8072 9.06095 54.7245 8.55617 56.5639C8.11324 58.178 6.81282 59.6119 5.18027 60.0501C4.4375 60.2456 3.65154 60.1939 2.9406 59.9028C2.22965 59.6116 1.63216 59.0967 1.23801 58.4356C0.421903 57.1447 0.402377 55.4538 1.62771 54.4115C1.93666 54.1443 2.29654 53.943 2.68548 53.8197C3.07442 53.6965 3.48427 53.6539 3.89014 53.6945C4.29601 53.7351 4.6894 53.8581 5.04638 54.0561C5.40337 54.254 5.71651 54.5227 5.96674 54.8458C6.46385 55.4935 6.68636 56.3117 6.58603 57.1229C6.52566 57.5329 7.15115 57.7099 7.21207 57.2961C7.35829 56.4382 7.19614 55.556 6.75451 54.8069C6.31289 54.0577 5.62046 53.4901 4.80062 53.2053C3.98077 52.9205 3.08674 52.9369 2.27783 53.2516C1.46893 53.5663 0.797671 54.1589 0.383666 54.9238C-0.355283 56.3176 0.0434243 57.9986 0.981445 59.19C1.46541 59.8246 2.12138 60.3058 2.87087 60.5762C3.62036 60.8465 4.43163 60.8946 5.20761 60.7145C6.91507 60.3189 8.31186 58.9575 8.96873 57.3578C9.70001 55.5768 9.36496 53.5893 8.65206 51.8611C7.88145 49.9929 6.73709 48.3174 5.83212 46.5172C5.01269 44.8903 4.49125 43.1289 4.29265 41.3171C3.89515 37.6787 4.71831 34.0113 6.6319 30.8949C8.58236 27.827 11.5594 25.5572 15.0283 24.4935C18.4487 23.4164 22.2212 23.4494 25.5702 24.7731C28.8691 26.077 32.0546 28.9186 32.0163 32.7351C32 34.3654 31.3967 36.028 30.1519 37.1153C28.6642 38.4148 26.5929 38.5259 24.7228 38.3231C22.8409 38.119 21.0134 37.5677 19.1233 37.427C17.4794 37.3047 15.7058 37.4319 14.238 38.2512C13.5544 38.6336 12.9724 39.1752 12.5411 39.8304C12.3092 40.1805 12.8713 40.507 13.1017 40.1591V40.1591Z" fill="#2F2E41"/>
<path d="M14.9446 68.5961C14.963 68.6382 14.9838 68.6792 15.0068 68.7189C15.0301 68.7605 15.0555 68.8007 15.0831 68.8395L20.1483 76.153L20.5412 76.721L24.6728 82.6831L28.6589 88.4389L30.2719 90.7709C30.3153 90.8345 30.364 90.8942 30.4175 90.9494C30.6669 91.2127 31.0023 91.3772 31.3626 91.413H31.4041V81.4661L30.9419 80.7985L25.7589 73.3157L20.1923 65.2789C19.963 64.9483 19.6124 64.7224 19.2174 64.6507C18.8224 64.579 18.4151 64.6674 18.0849 64.8964L16.3772 66.0856L15.4598 66.7254C15.1697 66.9278 14.9594 67.2257 14.8653 67.5674C14.7712 67.909 14.7993 68.273 14.9446 68.5961Z" fill="#4C76E1"/>
<path d="M14.152 68.4176L14.3807 68.8789L14.383 68.8812L14.4454 69.0041L18.1588 76.3987C18.3681 76.7426 18.7047 76.9894 19.0949 77.085C19.4851 77.1805 19.8971 77.1172 20.2409 76.9087L20.4812 76.7581L20.5412 76.721L25.3292 73.7075C25.5001 73.6036 25.6488 73.4669 25.7667 73.3052C25.8847 73.1434 25.9695 72.9598 26.0163 72.765C26.0632 72.5701 26.0711 72.3679 26.0396 72.17C26.0081 71.9721 25.9378 71.7824 25.8329 71.6119L20.5736 64.4583C20.0581 63.7572 19.3177 63.2557 18.4769 63.0378C17.6361 62.82 16.7461 62.8992 15.9567 63.2622C15.7785 63.3427 15.607 63.4373 15.4437 63.5449C14.6706 64.0573 14.1121 64.8366 13.874 65.7348C13.6358 66.633 13.7348 67.5877 14.152 68.4176Z" fill="#2F2E41"/>
<path d="M41.4215 93.0287V110.482C41.4221 110.884 41.5818 111.27 41.8655 111.555C42.1492 111.839 42.5339 111.999 42.9351 112H46.131C46.5322 111.999 46.9168 111.839 47.2005 111.555C47.4843 111.27 47.6439 110.884 47.6445 110.482V93.0287H41.4215Z" fill="#4C76E1"/>
<path d="M22.7943 91.9925V92.4492C22.7946 92.6905 22.8781 92.9244 23.0305 93.1111C23.183 93.2978 23.395 93.4259 23.6308 93.4738C23.6631 93.4784 23.6955 93.4854 23.7279 93.4877C23.7625 93.49 23.7971 93.4923 23.8342 93.4923H59.4571C60.0291 93.4922 60.5776 93.2644 60.9823 92.8589C61.3869 92.4534 61.6146 91.9033 61.6153 91.3296V76.772C61.6146 76.1982 61.3869 75.6482 60.9823 75.2427C60.5776 74.8372 60.0291 74.6093 59.4571 74.6092H33.098C32.5264 74.6098 31.9784 74.8379 31.5742 75.2434C31.17 75.6488 30.9427 76.1986 30.9421 76.772V90.9494H23.8342C23.5584 90.9494 23.2939 91.0593 23.0989 91.2549C22.9039 91.4506 22.7943 91.7159 22.7943 91.9925Z" fill="white"/>
<path d="M22.7943 91.9925V92.4492C22.7946 92.6905 22.8781 92.9244 23.0305 93.1111C23.183 93.2978 23.395 93.4259 23.6308 93.4738C23.6631 93.4784 23.6955 93.4854 23.7279 93.4877C23.7625 93.49 23.7971 93.4923 23.8342 93.4923H59.4571C60.0291 93.4922 60.5776 93.2644 60.9823 92.8589C61.3869 92.4534 61.6146 91.9033 61.6153 91.3296V76.772C61.6146 76.1982 61.3869 75.6482 60.9823 75.2427C60.5776 74.8372 60.0291 74.6093 59.4571 74.6092H33.098C32.5264 74.6098 31.9784 74.8379 31.5742 75.2434C31.17 75.6488 30.9427 76.1986 30.9421 76.772V90.9494H23.8342C23.5584 90.9494 23.2939 91.0593 23.0989 91.2549C22.9039 91.4506 22.7943 91.7159 22.7943 91.9925ZM23.2565 92.4492V91.9925C23.2565 91.8388 23.3174 91.6915 23.4257 91.5828C23.5341 91.4741 23.681 91.4131 23.8342 91.413H31.4042V76.772C31.4049 76.3215 31.5835 75.8897 31.901 75.5712C32.2186 75.2527 32.649 75.0735 33.098 75.0728H59.4571C59.9065 75.073 60.3375 75.252 60.6554 75.5705C60.9734 75.8891 61.1524 76.3212 61.1532 76.772V91.3296C61.1524 91.7804 60.9734 92.2124 60.6554 92.531C60.3374 92.8495 59.9065 93.0285 59.4571 93.0287H23.8342C23.681 93.0287 23.5341 92.9676 23.4257 92.8589C23.3174 92.7502 23.2565 92.6029 23.2565 92.4492V92.4492Z" fill="#3F3D56"/>
<path d="M46.2784 85.8336C47.2598 85.8336 48.0554 85.0355 48.0554 84.051C48.0554 83.0665 47.2598 82.2684 46.2784 82.2684C45.2969 82.2684 44.5013 83.0665 44.5013 84.051C44.5013 85.0355 45.2969 85.8336 46.2784 85.8336Z" fill="#4C76E1"/>
<path d="M31.4111 91.1951H30.949V93.2814H31.4111V91.1951Z" fill="#3F3D56"/>
</g>
<defs>
<clipPath id="clip0">
<rect width="118" height="120" fill="white"/>
</clipPath>
</defs>
</svg>
