<svg width="41" height="41" viewBox="0 0 41 41" fill="none" xmlns="http://www.w3.org/2000/svg">
<g clip-path="url(#clip0)">
<path d="M27.0275 39.9326C26.814 40.0047 26.5991 40.0747 26.3828 40.139C26.5998 40.074 26.814 40.004 27.0275 39.9326Z" fill="#F9EDE0"/>
<path d="M28.0984 39.5396C27.868 39.6314 27.6375 39.7219 27.4028 39.8053C27.6375 39.7212 27.8687 39.6314 28.0984 39.5396Z" fill="#F9EDE0"/>
<path d="M20.5 41C31.8218 41 41 31.8218 41 20.5C41 9.17816 31.8218 0 20.5 0C9.17816 0 0 9.17816 0 20.5C0 31.8218 9.17816 41 20.5 41Z" fill="#EFECE8"/>
<path d="M25.9692 40.2563C25.76 40.3143 25.5493 40.3694 25.3365 40.4211C25.5493 40.3694 25.76 40.3143 25.9692 40.2563Z" fill="#F9EDE0"/>
<path d="M19.0148 40.9406C18.7646 40.923 18.515 40.9039 18.2683 40.877C18.5157 40.9039 18.7653 40.923 19.0148 40.9406Z" fill="#F9EDE0"/>
<path d="M15.6627 40.4203C15.4506 40.3687 15.24 40.3136 15.03 40.2556C15.24 40.3143 15.4506 40.3694 15.6627 40.4203Z" fill="#F9EDE0"/>
<path d="M17.8442 40.8233C17.6201 40.7943 17.3968 40.7639 17.1748 40.7278C17.3961 40.7639 17.6201 40.7936 17.8442 40.8233Z" fill="#F9EDE0"/>
<path d="M20.5001 41C20.1226 41 19.7486 40.988 19.3761 40.9682C19.7486 40.988 20.1226 41 20.5001 41Z" fill="#F9EDE0"/>
<path d="M16.7372 40.6494C16.5223 40.6098 16.3081 40.5674 16.0961 40.5207C16.3081 40.5674 16.5223 40.6098 16.7372 40.6494Z" fill="#F9EDE0"/>
<path d="M12.6015 39.421C12.2827 39.2874 11.9674 39.1474 11.6571 38.999C11.9681 39.1474 12.2834 39.2881 12.6015 39.421Z" fill="#F9EDE0"/>
<path d="M13.5965 39.8053C13.3625 39.7212 13.1313 39.6314 12.9009 39.5396C13.1313 39.6314 13.3625 39.7212 13.5965 39.8053Z" fill="#F9EDE0"/>
<path d="M21.624 40.9682C21.2514 40.988 20.8775 41 20.5 41C20.8775 41 21.2514 40.988 21.624 40.9682Z" fill="#F9EDE0"/>
<path d="M22.7317 40.877C22.4843 40.9039 22.2348 40.923 21.9852 40.9406C22.2348 40.923 22.4843 40.9039 22.7317 40.877Z" fill="#F9EDE0"/>
<path d="M24.9047 40.5207C24.6919 40.5674 24.4784 40.6098 24.2635 40.6494C24.4777 40.6098 24.6919 40.5674 24.9047 40.5207Z" fill="#F9EDE0"/>
<path d="M23.8259 40.7271C23.604 40.7632 23.3806 40.7936 23.1565 40.8226C23.3799 40.7936 23.604 40.7639 23.8259 40.7271Z" fill="#F9EDE0"/>
<path d="M29.339 39.0002C29.0301 39.1479 28.7162 39.2879 28.3988 39.4208C28.7162 39.2879 29.0301 39.1486 29.339 39.0002Z" fill="#F9EDE0"/>
<path d="M14.6172 40.139C14.4002 40.074 14.186 40.004 13.9725 39.9326C14.186 40.004 14.4002 40.074 14.6172 40.139Z" fill="#F9EDE0"/>
<path d="M28.3988 39.4208C28.2999 39.4625 28.1988 39.4992 28.0991 39.5388C28.1981 39.4992 28.2992 39.4625 28.3988 39.4208Z" fill="#F9EDE0"/>
<path d="M29.3679 38.9875C29.3585 38.9918 29.3485 38.9961 29.3391 39.0004C29.3485 38.9961 29.3585 38.9925 29.3679 38.9875Z" fill="#F9EDE0"/>
<path d="M16.0953 40.5207C15.9504 40.4889 15.8062 40.4557 15.6627 40.4211C15.8062 40.4557 15.9504 40.4889 16.0953 40.5207Z" fill="#F9EDE0"/>
<path d="M17.174 40.7271C17.0277 40.7031 16.8821 40.6762 16.7365 40.6494C16.8828 40.6762 17.0277 40.7038 17.174 40.7271Z" fill="#F9EDE0"/>
<path d="M19.3761 40.9682C19.2552 40.9618 19.1351 40.9491 19.0149 40.9406C19.1358 40.9491 19.2552 40.9618 19.3761 40.9682Z" fill="#F9EDE0"/>
<path d="M18.2684 40.877C18.1263 40.8614 17.9856 40.8417 17.8442 40.8233C17.9856 40.8417 18.1263 40.8614 18.2684 40.877Z" fill="#F9EDE0"/>
<path d="M11.6579 38.9997C11.65 38.9961 11.6413 38.9925 11.6334 38.9889C11.6413 38.9925 11.65 38.9961 11.6579 38.9997Z" fill="#F9EDE0"/>
<path d="M21.9853 40.9406C21.8644 40.9491 21.7449 40.9618 21.624 40.9682C21.7449 40.9618 21.8644 40.9491 21.9853 40.9406Z" fill="#F9EDE0"/>
<path d="M26.3828 40.139C26.2456 40.18 26.1078 40.2182 25.9692 40.2563C26.1078 40.2182 26.2456 40.18 26.3828 40.139Z" fill="#F9EDE0"/>
<path d="M27.4036 39.8054C27.2791 39.8499 27.1533 39.8902 27.0282 39.9326C27.1533 39.8902 27.2791 39.8499 27.4036 39.8054Z" fill="#F9EDE0"/>
<path d="M12.9015 39.5396C12.8019 39.5 12.7008 39.4625 12.6018 39.4215C12.7008 39.4625 12.8019 39.4993 12.9015 39.5396Z" fill="#F9EDE0"/>
<path d="M13.9725 39.9326C13.8474 39.8902 13.7209 39.8499 13.5972 39.8054C13.7209 39.8499 13.8467 39.8902 13.9725 39.9326Z" fill="#F9EDE0"/>
<path d="M23.1558 40.8233C23.0144 40.8417 22.8738 40.8622 22.7317 40.877C22.8738 40.8614 23.0144 40.8417 23.1558 40.8233Z" fill="#F9EDE0"/>
<path d="M25.3373 40.4203C25.1938 40.455 25.0496 40.4882 24.9047 40.52C25.0496 40.4889 25.1938 40.4557 25.3373 40.4203Z" fill="#F9EDE0"/>
<path d="M24.2629 40.6494C24.1173 40.6762 23.9724 40.7038 23.8253 40.7271C23.9724 40.7038 24.1173 40.6762 24.2629 40.6494Z" fill="#F9EDE0"/>
<path d="M15.0307 40.2563C14.8929 40.2182 14.7543 40.18 14.6172 40.139C14.7543 40.18 14.8922 40.2182 15.0307 40.2563Z" fill="#F9EDE0"/>
<path d="M25.1924 21.9095C27.4764 20.389 28.9828 17.794 28.9828 14.8448C28.9828 10.1602 25.1846 6.36206 20.5 6.36206C15.8154 6.36206 12.0173 10.1602 12.0173 14.8448C12.0173 17.794 13.5237 20.389 15.8077 21.9095C15.8077 21.9095 15.8084 21.9103 15.8091 21.9103C15.8084 21.9103 15.8084 21.9095 15.8084 21.9095C10.3412 23.5573 6.0843 27.9945 4.71362 33.5769L4.71433 33.5776C4.93771 33.8469 5.16957 34.1099 5.40638 34.3679C5.46364 34.4308 5.52373 34.4909 5.5824 34.5524C5.76478 34.7461 5.94928 34.9369 6.13873 35.1236C6.21719 35.2006 6.29707 35.2748 6.37695 35.3505C6.55226 35.5173 6.72969 35.682 6.91066 35.8425C7.00043 35.9216 7.09162 36.0001 7.18211 36.0779C7.35954 36.2299 7.53909 36.379 7.72217 36.5246C7.81831 36.6017 7.91516 36.6773 8.012 36.753C8.19721 36.8958 8.38524 37.0343 8.5754 37.17C8.67366 37.24 8.7705 37.3114 8.87018 37.38C9.07093 37.5185 9.27523 37.6514 9.48093 37.7829C9.57354 37.8416 9.66402 37.9024 9.75733 37.9603C9.99485 38.1067 10.2366 38.2466 10.4805 38.3838C10.5448 38.4198 10.6077 38.4587 10.6728 38.494C10.988 38.6665 11.3083 38.8319 11.6334 38.9882C11.6412 38.9917 11.6497 38.9952 11.6575 38.9988C11.9678 39.1472 12.2831 39.2879 12.6019 39.4208C12.7008 39.4625 12.8019 39.4993 12.9016 39.5388C13.1321 39.6307 13.3625 39.7212 13.5972 39.8046C13.7216 39.8492 13.8474 39.8895 13.9726 39.9319C14.186 40.004 14.4009 40.074 14.6172 40.1383C14.7544 40.1793 14.8922 40.2175 15.0308 40.2556C15.24 40.3136 15.4507 40.3687 15.6635 40.4203C15.807 40.455 15.9512 40.4882 16.0961 40.52C16.3089 40.5667 16.5223 40.6091 16.7372 40.6487C16.8828 40.6755 17.0278 40.7031 17.1748 40.7264C17.3968 40.7625 17.6201 40.7929 17.8442 40.8219C17.9856 40.8402 18.1263 40.8607 18.2684 40.8756C18.5158 40.9024 18.7653 40.9215 19.0148 40.9392C19.1357 40.9477 19.2552 40.9604 19.3761 40.9668C19.7486 40.988 20.1226 41 20.5 41C20.8775 41 21.2515 40.988 21.624 40.9682C21.7449 40.9618 21.8651 40.9491 21.9852 40.9406C22.2355 40.9229 22.485 40.9039 22.7317 40.877C22.8738 40.8614 23.0145 40.8417 23.1559 40.8233C23.3799 40.7943 23.6033 40.7639 23.8253 40.7278C23.9716 40.7038 24.1172 40.6769 24.2629 40.6501C24.4777 40.6105 24.6919 40.5681 24.904 40.5214C25.0489 40.4896 25.1931 40.4564 25.3366 40.4218C25.5487 40.3702 25.7593 40.315 25.9693 40.257C26.1071 40.2189 26.2457 40.1807 26.3828 40.1397C26.5998 40.0747 26.814 40.0047 27.0275 39.9333C27.1526 39.8909 27.2792 39.8506 27.4029 39.806C27.6369 39.7219 27.868 39.6322 28.0985 39.5403C28.1981 39.5007 28.2992 39.4632 28.3982 39.4222C28.7156 39.2893 29.0295 39.15 29.3384 39.0016C29.3476 38.9974 29.3575 38.9931 29.3666 38.9889C29.6918 38.8326 30.012 38.6672 30.3273 38.4948C30.3924 38.4594 30.4553 38.4205 30.5196 38.3845C30.7635 38.2473 31.0052 38.1074 31.2427 37.961C31.3361 37.9038 31.4272 37.843 31.5191 37.7836C31.7249 37.6521 31.9291 37.5185 32.1299 37.3807C32.2289 37.3121 32.3264 37.2414 32.4247 37.1707C32.6148 37.0343 32.8029 36.8958 32.9881 36.7537C33.0856 36.6787 33.1818 36.6024 33.2779 36.5253C33.4603 36.3797 33.6405 36.2306 33.818 36.0786C33.9092 36.0008 34.0004 35.9224 34.0894 35.8432C34.2704 35.6827 34.4478 35.518 34.6231 35.3512C34.7023 35.2755 34.7829 35.2006 34.8614 35.1243C35.0508 34.9377 35.236 34.7468 35.4177 34.5531C35.4756 34.4909 35.5357 34.4308 35.5937 34.3686C35.8305 34.1106 36.0624 33.8476 36.2857 33.5783L36.2865 33.5776C34.9165 27.9945 30.6596 23.5573 25.1924 21.9095Z" fill="#C6C3BD"/>
</g>
<defs>
<clipPath id="clip0">
<rect width="41" height="41" fill="white"/>
</clipPath>
</defs>
</svg>
