<svg width="71" height="71" viewBox="0 0 71 71" fill="none" xmlns="http://www.w3.org/2000/svg">
<g clip-path="url(#clip0)">
<path d="M62.4277 61.2798L31.9229 8.44402L30.9338 8.44665L0.504565 61.1514C-0.929025 63.6343 0.862894 66.7381 3.73007 66.7381H60.7611C62.6873 65.7995 63.6154 63.3369 62.4277 61.2798Z" fill="#DD636E"/>
<path d="M70.4957 61.1514L38.7257 6.12418C37.2921 3.64126 33.7082 3.64126 32.2748 6.12418L30.9338 8.44666L61.3182 61.0739C62.7518 63.5568 60.9599 66.738 58.0927 66.738H67.2702C70.1372 66.738 71.9291 63.6343 70.4957 61.1514Z" fill="#DA4A54"/>
<path d="M34.8031 13.4333L7.9607 59.9257C7.71234 60.3558 8.02282 60.8933 8.51941 60.8933H62.2041L34.8031 13.4333Z" fill="#F9F6F9"/>
<path d="M37.7178 53.9407C37.7178 55.1656 36.7249 56.1585 35.5 56.1585C34.2751 56.1585 33.2822 55.1656 33.2822 53.9407C33.2822 52.7158 34.2751 51.7229 35.5 51.7229C36.7248 51.7231 37.7178 52.716 37.7178 53.9407Z" fill="#DD636E"/>
<path d="M35.5141 48.0501C34.297 48.0501 33.3103 47.0634 33.3103 45.8463V26.3571C33.3103 25.14 34.297 24.1533 35.5141 24.1533C36.7312 24.1533 37.7179 25.14 37.7179 26.3571V45.8463C37.7179 47.0634 36.7312 48.0501 35.5141 48.0501Z" fill="#DD636E"/>
</g>
<defs>
<clipPath id="clip0">
<rect width="71" height="71" fill="white"/>
</clipPath>
</defs>
</svg>
